<?xml version="1.0" encoding="UTF-8"?><svg id="Layer_1" xmlns="http://www.w3.org/2000/svg" width="588" height="637" viewBox="0 0 588 637"><defs><style>.cls-1{fill:none;stroke:#6d6d6d;stroke-miterlimit:10;}.cls-2{fill:#e83932;}.cls-3{fill:#d2985c;}.cls-4{fill:#f6cf76;}.cls-5{fill:#f1933c;}.cls-6{fill:#2773b9;}.cls-7{fill:#f3ec50;}.cls-8{fill:#fff;}.cls-9{fill:#a56e2a;}.cls-10{fill:#cbcbcb;}.cls-11{fill:#93c63f;}.cls-12{fill:#9254a1;}</style></defs><path class="cls-4" d="M144.93,177.36c-25.15,8.41-74.79,32.75-91.84,53.06-12.45,14.83-23.89,54.12-24.49,73.47-.69,22.44,17.78,66.85,32.65,83.67,11.64,13.16,46.58,25.12,63.27,30.61,23.67,7.79,97.96,18.37,97.96,18.37,0,0,2.52,18.91,0,24.49-4.76,10.54-31.42,19.52-34.69,30.61-2.98,10.07,12.7,29.59,20.41,36.73,18.48,17.13,69.16,31.82,93.88,36.73,28.02,5.57,85.76,1.68,114.29,0,21.78-1.28,65.65-7.76,85.71-16.33,22.6-9.65,61.54-43.82,73.47-65.31,8.8-15.84,12.24-71.43,12.24-71.43,0,0-15.16-77.73-28.57-100-14.36-23.85-60.49-58.05-83.67-73.47-39.05-25.97-127.5-62.12-173.47-71.43-18-3.65-55.11-.51-73.47,0-21.07.58-63.69,3.52-83.67,10.2Z"/><path class="cls-5" d="M112.52,244.89c-.14-1.5-.12-1.41-.23-2.72-2.17-26.88,2.84-15.84,22.81-16.67,20.95-.87,11.22,29.61,26.93,27.86s35.16,2.61,30.68,19.16-9.73,6.97-23.94,20.03-27.68,30.48-37.41,23.51-21.7-6.1-23.94-26.12c-2.24-20.03-33.67-40.05-14.22-41.8,19.45-1.74,19.31,2.43,19.31-3.25"/><path class="cls-2" d="M265.15,216.15c-.14-1.5-.12-1.41-.23-2.72-2.17-26.88,2.84-15.84,22.81-16.67,20.95-.87,11.22,29.61,26.93,27.86s35.16,2.61,30.68,19.16-9.73,6.97-23.94,20.03-27.68,30.48-37.41,23.51-21.7-6.1-23.94-26.12c-2.24-20.03-33.67-40.05-14.22-41.8,19.45-1.74,19.31,2.43,19.31-3.25"/><path class="cls-12" d="M411.26,267.05c.5-1.27.47-1.18.92-2.28,9.13-22.49,8.7-11.59,25.11-4.17,17.22,7.78-2.94,28.35,10.42,33.31s27.25,16.34,16.95,27.82c-10.3,11.49-10.65,1.66-27.37,6.41s-34.61,13.3-39.62,3.76c-5.01-9.54-15-13.69-8.71-30.7s-10.91-45.84,5.46-39.36c16.37,6.48,14.56,9.78,16.86,5.21"/><path class="cls-6" d="M471.28,404.21c.57-1.44.54-1.34,1.06-2.59,10.51-25.54,9.73-13.27,27.25-5.41,18.38,8.24-4,31.94,10.29,37.13,14.29,5.19,28.98,17.57,17.51,30.77-11.47,13.21-11.55,2.18-29.77,8-18.21,5.82-37.79,15.95-42.93,5.37s-15.81-14.94-8.52-34.25c7.29-19.3-10.45-51.2,7.04-44.39,17.5,6.8,15.45,10.56,18.07,5.36"/><path class="cls-11" d="M358.71,472.4c.55-1.35.52-1.26,1.01-2.44,10.06-24,8.98-12.61,24.1-5.9,15.86,7.04-4.55,29.72,7.82,34.06s24.86,15.33,14.36,27.93c-10.5,12.61-10.21,2.39-26.39,8.38-16.18,5.99-33.69,16.01-37.85,6.38-4.17-9.63-13.39-13.33-6.36-31.44,7.03-18.12-7.5-47.08,7.63-41.35,15.13,5.73,13.22,9.28,15.68,4.38"/><path class="cls-7" d="M295.51,396.87c.55-1.35.52-1.26,1.01-2.44,10.06-24,8.98-12.61,24.1-5.9,15.86,7.04-4.55,29.72,7.82,34.06s24.86,15.33,14.36,27.93c-10.5,12.61-10.21,2.39-26.39,8.38-16.18,5.99-33.69,16.01-37.85,6.38-4.17-9.63-13.39-13.33-6.36-31.44,7.03-18.12-7.5-47.08,7.63-41.35,15.13,5.73,13.22,9.28,15.68,4.38"/><path class="cls-3" d="M112.41,414.35l-42.39,78.32s-27.35,52.32-36.7,69.63c-6.54,12.12-20.03,36.23-25.25,48.97-2.51,6.12-7.86,25.27-7.86,25.27,0,0,32.62-36.77,42.49-49.84,12.97-17.17,47.74-71.6,47.74-71.6l45.57-72.75,10.3-18.49-33.91-9.53Z"/><path class="cls-8" d="M162.62,326.26s-30.37-.82-37.23,5.62c-6.07,5.71-9.29,24.57-7.02,32.59,1.52,5.35,12.33,18.53,12.33,18.53l31.92-56.75Z"/><path class="cls-8" d="M182.16,334.42s11.39,12.51,13.81,18.43c2.78,6.8.46,18.95-1.68,25.96-1.67,5.47-7.31,13.94-11.82,17.87-4.56,3.98-9.23,3.82-13.81,3.4s-16.55-5.12-16.55-5.12l30.04-60.53Z"/><polygon class="cls-3" points="130.45 382.56 143.15 392.31 156.64 397.21 194.7 325.01 248.9 214.9 256.3 196.08 227.42 180.61 185.18 273.06 130.45 382.56"/><path class="cls-10" d="M227.35,180.75l27.97,17.83s4.12-10.17,5.96-14.44c3.24-7.56,12.78-30.3,12.78-30.3,0,0,3.78-11.75,5.13-15.63,1.82-5.21,6.13-14.98,7.66-20.72s-23.23-8.63-23.23-8.63c0,0-3.09-.79-4.04-.05-2.63,2.05-5.28,13.06-5.28,13.06,0,0-9.19,20.38-12.18,27.21-3.77,8.65-14.77,31.67-14.77,31.67Z"/><path class="cls-9" d="M315.02.46l-9.14,15.11-12.06,14.36s-9.3,10.15-12.21,13.7c-3.63,4.43-10.36,13.76-13.18,18.75s-6.87,15.54-7.95,21.06c-.8,4.09-.41,16.66-.41,16.66l-1.22,8.84,27.19,8.98s11.01-7.34,13.91-10.62c3.61-4.08,8.31-14.21,9.93-19.42,1.49-4.79,2.58-19.89,2.58-19.89l.71-28.46-.63-21.95,2.49-17.11Z"/><line class="cls-1" x1="254.03" y1="122.21" x2="281.2" y2="132.92"/><line class="cls-1" x1="252.69" y1="125.16" x2="280.05" y2="135.87"/><line class="cls-1" x1="234.13" y1="166.44" x2="262.78" y2="180.61"/><line class="cls-1" x1="234.92" y1="164.75" x2="263.57" y2="178.92"/></svg>