<?xml version="1.0" encoding="UTF-8"?><svg id="Layer_1" xmlns="http://www.w3.org/2000/svg" width="65" height="80" viewBox="0 0 65 80"><defs><style>.cls-1{fill:none;stroke:#6d6d6d;stroke-miterlimit:10;}.cls-2{fill:#e83932;}.cls-3{fill:#d2985c;}.cls-4{fill:#f6cf76;}.cls-5{fill:#f1933c;}.cls-6{fill:#2773b9;}.cls-7{fill:#f3ec50;}.cls-8{fill:#fff;}.cls-9{fill:#a56e2a;}.cls-10{fill:#cbcbcb;}.cls-11{fill:#93c63f;}.cls-12{fill:#9254a1;}</style></defs><path class="cls-4" d="M16.25,22.26c-2.74,1.06-8.15,4.12-10.01,6.67-1.36,1.86-2.6,6.8-2.67,9.23-.08,2.82,1.94,8.4,3.56,10.51,1.27,1.65,5.08,3.16,6.89,3.85,2.58.98,10.68,2.31,10.68,2.31,0,0,.27,2.38,0,3.08-.52,1.32-3.42,2.45-3.78,3.85-.32,1.27,1.38,3.72,2.22,4.62,2.01,2.15,7.54,4,10.23,4.62,3.05.7,9.35.21,12.45,0,2.37-.16,7.15-.98,9.34-2.05,2.46-1.21,6.71-5.51,8.01-8.21.96-1.99,1.33-8.98,1.33-8.98,0,0-1.65-9.77-3.11-12.57-1.57-3-6.59-7.29-9.12-9.23-4.26-3.26-13.9-7.8-18.9-8.98-1.96-.46-6.01-.06-8.01,0-2.3.07-6.94.44-9.12,1.28Z"/><path class="cls-5" d="M12.72,30.75c-.02-.19-.01-.18-.03-.34-.24-3.38.31-1.99,2.49-2.09,2.28-.11,1.22,3.72,2.94,3.5s3.83.33,3.34,2.41-1.06.88-2.61,2.52-3.02,3.83-4.08,2.95-2.36-.77-2.61-3.28-3.67-5.03-1.55-5.25,2.1.31,2.1-.41"/><path class="cls-2" d="M29.36,27.14c-.02-.19-.01-.18-.03-.34-.24-3.38.31-1.99,2.49-2.09,2.28-.11,1.22,3.72,2.94,3.5s3.83.33,3.34,2.41-1.06.88-2.61,2.52-3.02,3.83-4.08,2.95-2.36-.77-2.61-3.28-3.67-5.03-1.55-5.25,2.1.31,2.1-.41"/><path class="cls-12" d="M45.28,33.54c.05-.16.05-.15.1-.29.99-2.83.95-1.46,2.74-.52,1.88.98-.32,3.56,1.14,4.19s2.97,2.05,1.85,3.5-1.16.21-2.98.81-3.77,1.67-4.32.47-1.64-1.72-.95-3.86-1.19-5.76.59-4.95,1.59,1.23,1.84.65"/><path class="cls-6" d="M51.82,50.77c.06-.18.06-.17.12-.33,1.15-3.21,1.06-1.67,2.97-.68,2,1.04-.44,4.01,1.12,4.67s3.16,2.21,1.91,3.87-1.26.27-3.24,1.01-4.12,2-4.68.68-1.72-1.88-.93-4.3-1.14-6.43.77-5.58,1.68,1.33,1.97.67"/><path class="cls-11" d="M39.55,59.34c.06-.17.06-.16.11-.31,1.1-3.02.98-1.58,2.63-.74,1.73.88-.5,3.73.85,4.28s2.71,1.93,1.57,3.51-1.11.3-2.88,1.05-3.67,2.01-4.13.8-1.46-1.67-.69-3.95-.82-5.92.83-5.2,1.44,1.17,1.71.55"/><path class="cls-7" d="M32.66,49.85c.06-.17.06-.16.11-.31,1.1-3.02.98-1.58,2.63-.74,1.73.88-.5,3.73.85,4.28s2.71,1.93,1.57,3.51-1.11.3-2.88,1.05-3.67,2.01-4.13.8-1.46-1.67-.69-3.95-.82-5.92.83-5.2,1.44,1.17,1.71.55"/><path class="cls-3" d="M12.71,52.04l-4.62,9.84s-2.98,6.57-4,8.75c-.71,1.52-2.18,4.55-2.75,6.15-.27.77-.86,3.18-.86,3.18,0,0,3.55-4.62,4.63-6.26,1.41-2.16,5.2-9,5.2-9l4.97-9.14,1.12-2.32-3.7-1.2Z"/><path class="cls-8" d="M18.18,40.97s-3.31-.1-4.06.71c-.66.72-1.01,3.09-.76,4.1.17.67,1.34,2.33,1.34,2.33l3.48-7.13Z"/><path class="cls-8" d="M20.31,42s1.24,1.57,1.5,2.32c.3.85.05,2.38-.18,3.26-.18.69-.8,1.75-1.29,2.24s-1.01.48-1.5.43-1.8-.64-1.8-.64l3.27-7.61Z"/><polygon class="cls-3" points="14.68 48.05 16.06 49.28 17.53 49.89 21.68 40.82 27.58 26.98 28.39 24.62 25.24 22.67 20.64 34.29 14.68 48.05"/><path class="cls-10" d="M25.24,22.69l3.05,2.24s.45-1.28.65-1.81c.35-.95,1.39-3.81,1.39-3.81,0,0,.41-1.48.56-1.96.2-.66.67-1.88.84-2.6s-2.53-1.08-2.53-1.08c0,0-.34-.1-.44,0-.29.26-.58,1.64-.58,1.64,0,0-1,2.56-1.33,3.42-.41,1.09-1.61,3.98-1.61,3.98Z"/><path class="cls-9" d="M34.79.04l-1,1.9-1.31,1.8s-1.01,1.28-1.33,1.72c-.4.56-1.13,1.73-1.44,2.36s-.75,1.95-.87,2.65c-.09.51-.05,2.09-.05,2.09l-.13,1.11,2.96,1.13s1.2-.92,1.52-1.33c.39-.51.91-1.79,1.08-2.44.16-.6.28-2.5.28-2.5l.08-3.58-.07-2.76.27-2.15Z"/><line class="cls-1" x1="28.14" y1="15.34" x2="31.11" y2="16.68"/><line class="cls-1" x1="28" y1="15.71" x2="30.98" y2="17.05"/><line class="cls-1" x1="25.98" y1="20.89" x2="29.1" y2="22.67"/><line class="cls-1" x1="26.06" y1="20.68" x2="29.18" y2="22.46"/></svg>